<svg width="620" height="620" viewBox="0 0 620 620" fill="none" xmlns="http://www.w3.org/2000/svg">
<g clip-path="url(#clip0_4715_5391)">
<path d="M286.8 310.3C286.8 345.4 267.1 373.9 242.8 373.9C218.5 373.9 198.8 345.4 198.8 310.3C198.8 275.2 218.5 246.7 242.8 246.7C267.1 246.7 286.8 275.2 286.8 310.3ZM377.201 246.8C352.901 246.8 333.201 275.3 333.201 310.4C333.201 345.5 352.901 374 377.201 374C401.5 374 421.201 345.5 421.201 310.4C421.201 275.3 401.5 246.8 377.201 246.8ZM277.6 139.5C277.6 139.5 159.5 83.9003 81.7005 280.3C3.90048 476.7 151.5 584.6 265.4 553.2C210 522.2 98.6005 479.9 114.8 362.9C131 245.9 215.9 175.7 277.6 139.5ZM342.4 480.9C342.4 480.9 460.5 536.5 538.3 340.1C616.1 143.7 468.5 35.9003 354.6 67.2003C410 98.1003 521.401 140.5 505.201 257.4C489 374.3 404.1 444.6 342.4 480.9ZM480.6 277.9C480.6 277.9 536.2 159.8 339.8 82.0003C143.4 4.20028 35.6005 151.8 66.9005 265.7C97.8005 210.3 140.2 98.9003 257.1 115.1C374 131.3 444.3 216.2 480.6 277.9ZM139.4 342.7C139.4 342.7 83.8005 460.8 280.2 538.6C476.6 616.4 584.5 468.8 553.1 354.9C522.2 410.3 479.9 521.7 362.9 505.5C245.9 489.3 175.7 404.4 139.4 342.7Z" fill="url(#paint0_linear_4715_5391)"/>
</g>
<defs>
<linearGradient id="paint0_linear_4715_5391" x1="310" y1="560.304" x2="310" y2="60.3038" gradientUnits="userSpaceOnUse">
<stop offset="8.52756e-07" stop-color="#71C494"/>
<stop offset="0.3161" stop-color="#36629B"/>
<stop offset="0.6529" stop-color="#36629B"/>
<stop offset="1" stop-color="#71C494"/>
</linearGradient>
<clipPath id="clip0_4715_5391">
<rect width="500" height="500" fill="white" transform="translate(60 60)"/>
</clipPath>
</defs>
</svg>
