<?xml version="1.0" encoding="utf-8"?>
<!-- Generator: Adobe Illustrator 24.0.2, SVG Export Plug-In . SVG Version: 6.00 Build 0)  -->
<svg version="1.1" id="Layer_1" xmlns="http://www.w3.org/2000/svg" xmlns:xlink="http://www.w3.org/1999/xlink" x="0px" y="0px"
	 viewBox="0 0 500 500" style="enable-background:new 0 0 500 500;" xml:space="preserve">
<style type="text/css">
	.st0{fill:url(#SVGID_1_);}
	.st1{fill:#FFFFFF;}
	.st2{fill:url(#SVGID_2_);}
	.st3{fill:url(#SVGID_3_);}
	.st4{fill:url(#SVGID_4_);}
	.st5{fill:url(#SVGID_5_);}
	.st6{fill:#231F20;}
	.st7{fill:url(#SVGID_6_);}
</style>
<linearGradient id="SVGID_1_" gradientUnits="userSpaceOnUse" x1="250" y1="500.3035" x2="250" y2="0.3035">
	<stop  offset="8.527564e-07" style="stop-color:#71C494"/>
	<stop  offset="0.3161" style="stop-color:#36629B"/>
	<stop  offset="0.6529" style="stop-color:#36629B"/>
	<stop  offset="1" style="stop-color:#71C494"/>
</linearGradient>
<path class="st0" d="M226.8,250.3c0,35.1-19.7,63.6-44,63.6s-44-28.5-44-63.6s19.7-63.6,44-63.6S226.8,215.2,226.8,250.3z
	 M317.2,186.8c-24.3,0-44,28.5-44,63.6s19.7,63.6,44,63.6s44-28.5,44-63.6S341.5,186.8,317.2,186.8z M217.6,79.5
	c0,0-118.1-55.6-195.9,140.8s69.8,304.3,183.7,272.9C150,462.2,38.6,419.9,54.8,302.9S155.9,115.7,217.6,79.5z M282.4,420.9
	c0,0,118.1,55.6,195.9-140.8S408.5-24.1,294.6,7.2C350,38.1,461.4,80.5,445.2,197.4S344.1,384.6,282.4,420.9z M420.6,217.9
	c0,0,55.6-118.1-140.8-195.9S-24.4,91.8,6.9,205.7C37.8,150.3,80.2,38.9,197.1,55.1S384.3,156.2,420.6,217.9z M79.4,282.7
	c0,0-55.6,118.1,140.8,195.9s304.3-69.8,272.9-183.7c-30.9,55.4-73.2,166.8-190.2,150.6S115.7,344.4,79.4,282.7z"/>
</svg>
